<?xml version="1.0" encoding="UTF-8" standalone="no"?>
<!DOCTYPE svg PUBLIC "-//W3C//DTD SVG 1.1//EN" "http://www.w3.org/Graphics/SVG/1.1/DTD/svg11.dtd">
<svg width="100%" height="100%" viewBox="0 0 1182 1539" version="1.1" xmlns="http://www.w3.org/2000/svg" xmlns:xlink="http://www.w3.org/1999/xlink" xml:space="preserve" xmlns:serif="http://www.serif.com/" style="fill-rule:evenodd;clip-rule:evenodd;stroke-linejoin:round;stroke-miterlimit:2;">
    <g transform="matrix(1,0,0,1,-649.606299,-984.668378)">
        <g transform="matrix(1,0,0,1,-0,1.194919)">
            <path d="M776,1665.772C776,1665.772 1176.11,1384.711 1233.368,1344.489C1237.442,1341.628 1242.873,1341.628 1246.947,1344.489C1304.205,1384.711 1704.315,1665.772 1704.315,1665.772L1578,1753.937C1578,1753.937 1294.424,1555.99 1246.76,1522.719C1242.699,1519.884 1237.301,1519.884 1233.24,1522.719C1185.576,1555.99 902,1753.937 902,1753.937L776,1665.772Z" style="fill:rgb(255,212,170);"/>
        </g>
        <g transform="matrix(1,0,0,1,-0,1.194919)">
            <path d="M649.606,1931.102L649.606,2102.121C649.606,2105.974 651.485,2109.584 654.64,2111.794C708.163,2149.292 1171.674,2474.021 1233.381,2517.252C1237.449,2520.102 1242.866,2520.102 1246.934,2517.252C1308.641,2474.021 1772.152,2149.292 1825.675,2111.794C1828.83,2109.584 1830.709,2105.974 1830.709,2102.121C1830.709,2070.873 1830.709,1931.102 1830.709,1931.102C1830.709,1931.102 1312.389,2293.498 1246.925,2339.268C1242.861,2342.11 1237.454,2342.11 1233.39,2339.268C1167.926,2293.498 649.606,1931.102 649.606,1931.102Z" style="fill:rgb(178,76,12);"/>
        </g>
        <g transform="matrix(1,0,0,1,-0,1.194919)">
            <path d="M1830.709,1931.102L1704.315,1842.612C1704.315,1842.612 1304.099,2122.313 1246.924,2162.271C1242.86,2165.111 1237.455,2165.111 1233.391,2162.271C1176.224,2122.31 776.084,1842.612 776.084,1842.612L649.606,1931.102C649.606,1931.102 1167.926,2293.498 1233.39,2339.268C1237.454,2342.11 1242.861,2342.11 1246.925,2339.268C1312.389,2293.498 1830.709,1931.102 1830.709,1931.102Z" style="fill:rgb(220,98,13);"/>
        </g>
        <g transform="matrix(1,0,0,1,-0,1.194919)">
            <path d="M902,1753.937C902,1753.937 1185.707,1951.989 1233.394,1985.278C1237.456,1988.114 1242.858,1988.113 1246.919,1985.275C1294.574,1951.977 1578,1753.937 1578,1753.937C1578,1753.937 1294.565,1555.996 1246.917,1522.721C1242.856,1519.885 1237.458,1519.884 1233.396,1522.718C1185.716,1555.984 902,1753.937 902,1753.937Z" style="fill:rgb(255,179,109);"/>
        </g>
        <g transform="matrix(1,0,0,1,-0,1.194919)">
            <path d="M649.606,1754L776,1665.772L902,1753.937C902,1753.937 1185.707,1951.989 1233.394,1985.278C1237.456,1988.114 1242.858,1988.113 1246.919,1985.275C1294.574,1951.977 1578,1753.937 1578,1753.937L1704.315,1665.772L1830.709,1754.386L1830.709,1931.102L1704.315,1842.612C1704.315,1842.612 1304.099,2122.313 1246.924,2162.271C1242.86,2165.111 1237.455,2165.111 1233.391,2162.271C1176.224,2122.31 776.084,1842.612 776.084,1842.612L649.606,1931.102L649.606,1754Z" style="fill:rgb(255,136,13);"/>
        </g>
        <g transform="matrix(1,0,0,1,-0,1.194919)">
            <path d="M649.606,1576.772L776,1665.772L649.606,1754L649.606,1576.772Z" style="fill:rgb(255,212,170);"/>
        </g>
        <g transform="matrix(-1,0,0,1,2480.314961,1.580746)">
            <path d="M649.606,1576.386L776,1665.386L649.606,1754L649.606,1576.386Z" style="fill:rgb(255,212,170);"/>
        </g>
        <g transform="matrix(1,0,0,1,-0,-176.419254)">
            <path d="M649.606,1754.386C649.606,1754.386 1167.823,1390.511 1233.37,1344.486C1237.443,1341.626 1242.872,1341.626 1246.945,1344.486C1312.492,1390.511 1830.709,1754.386 1830.709,1754.386L1704.315,1843.386C1704.315,1843.386 1304.205,1562.325 1246.947,1522.104C1242.873,1519.242 1237.442,1519.242 1233.368,1522.104C1176.11,1562.325 776,1843.386 776,1843.386L649.606,1754.386Z" style="fill:rgb(255,236,219);"/>
        </g>
        <g transform="matrix(1,0,0,1,-0,-355.051891)">
            <path d="M649.606,1760.524C649.606,1756.676 651.481,1753.07 654.63,1750.858C708.101,1713.313 1171.619,1387.846 1233.37,1344.486C1237.443,1341.626 1242.872,1341.626 1246.945,1344.486C1308.696,1387.846 1772.214,1713.313 1825.685,1750.858C1828.834,1753.07 1830.709,1756.676 1830.709,1760.524C1830.709,1791.914 1830.709,1933.018 1830.709,1933.018C1830.709,1933.018 1312.492,1569.144 1246.945,1523.119C1242.872,1520.259 1237.443,1520.259 1233.37,1523.119C1167.823,1569.144 649.606,1933.018 649.606,1933.018L649.606,1760.524Z" style="fill:rgb(255,136,13);"/>
        </g>
    </g>
</svg>
